<?xml version="1.0" encoding="utf-8"?>
<!-- Generator: Adobe Illustrator 18.1.0, SVG Export Plug-In . SVG Version: 6.00 Build 0)  -->
<!DOCTYPE svg PUBLIC "-//W3C//DTD SVG 1.0//EN" "http://www.w3.org/TR/2001/REC-SVG-20010904/DTD/svg10.dtd">
<svg version="1.0" id="Layer_1" xmlns="http://www.w3.org/2000/svg" xmlns:xlink="http://www.w3.org/1999/xlink" x="0px" y="0px"
	 width="60" height="52" viewBox="0 0 476.651 414.008" enable-background="new 0 0 476.651 414.008" xml:space="preserve">
<g>
	<path fill="#BAB4B1" d="M262.277,144.053c-0.396,0-0.786-0.045-1.161-0.134c-6.752-1.656-10.423-18.823-10.373-23.242
		c0.025-4.665,4.38-15.675,10.258-15.675c0.243,0,0.486,0.018,0.729,0.056c7.429,1.129,12.426,20.619,11.926,26.16
		c-0.448,4.722-6.238,12.836-11.377,12.836C262.278,144.053,262.278,144.053,262.277,144.053z"/>
	<path fill="#423426" d="M261.001,107.501c0.116,0,0.232,0.008,0.348,0.026c5.151,0.783,10.316,17.927,9.816,23.464
		c-0.344,3.628-5.317,10.561-8.887,10.561c-0.199,0-0.395-0.021-0.584-0.066c-4.472-1.097-8.507-15.866-8.451-20.781
		C253.264,116.626,257.242,107.501,261.001,107.501 M261.001,102.501c-7.878,0-12.729,12.624-12.758,18.177
		c-0.036,3.178,1.094,8.617,2.811,13.506c2.58,7.346,5.582,11.209,9.449,12.158c0.601,0.143,1.186,0.21,1.775,0.21
		c7.183,0,13.375-9.923,13.864-15.088c0.371-4.103-1.278-10.846-3.075-15.718c-3.023-8.194-6.61-12.5-10.967-13.162
		C261.745,102.53,261.372,102.501,261.001,102.501L261.001,102.501z"/>
</g>
<g>
	<path fill="#BAB4B1" d="M268.457,173.571c-0.856,0-1.645-0.186-2.342-0.552c-5.496-2.936-4.921-18.482-3.909-22.261
		c1.018-3.896,6.487-11.411,11.285-11.411c0.637,0,1.247,0.123,1.814,0.365c6.315,2.68,6.299,20.315,4.605,25.1
		C278.565,168.561,272.659,173.571,268.457,173.571C268.457,173.571,268.457,173.571,268.457,173.571z"/>
	<path fill="#423426" d="M273.491,141.847c0.292,0,0.571,0.053,0.833,0.164c4.186,1.776,4.85,17.391,3.23,21.966
		c-0.996,2.776-5.972,7.094-9.098,7.094c-0.434,0-0.833-0.083-1.18-0.266c-3.545-1.894-3.766-15.257-2.656-19.401
		C265.472,148.149,270.281,141.847,273.491,141.847 M273.491,136.847c-6.753,0-12.669,9.318-13.708,13.293
		c-0.881,3.29-2.406,21.045,5.139,25.075c1.091,0.573,2.27,0.855,3.535,0.855c5.424,0,12.123-5.721,13.804-10.405
		c1.317-3.723,1.269-9.993,0.829-14.237c-0.813-7.834-3.04-12.42-6.813-14.021C275.407,137.037,274.468,136.847,273.491,136.847
		L273.491,136.847z"/>
</g>
<g>
	<g>
		<path fill="#423426" d="M452.68,120.082c-7.16-8.896-16.414-17.357-28.131-19.118c-12.396-2.046-25.508,5.412-30.43,16.892
			c-2.549,5.858-1.885,13.538,3.482,17.63c4.08,4.103,10.303,4.153,15.635,3.323c-3.273-0.955-6.826-2.846-7.525-6.51
			c-1.061-4.444,2.615-8.951,7.072-9.279c7.16-0.366,13.799,5.852,14.104,12.986c0.283,7.662-4.154,15.423-11.072,18.82
			c-5.207,2.554-10.996,3.546-16.711,4.14c-10.93,1.048-21.926,0.812-32.873,1.495c-9.473,0.592-19.018,1.81-28.166,4.378
			c2.272,1.464,4.201,3.037,5.215,4.302c2.619,3.294,5.357,13.398,2.006,15.363c-4.516,2.646-18.146-5.045-21.24-9.669
			c-0.625-0.937-1.106-2.399-1.391-4.036c-1.449,0.744-2.875,1.538-4.271,2.38c-0.07,0.305-0.182,0.588-0.355,0.839
			c-0.764,1.093-2.348,1.825-4.357,2.263c-9.518,6.817-17.357,15.981-22.211,26.667c-5.578,12.063-6.006,25.941-2.988,38.755
			c-7.01-1.568-14.244-2.393-21.422-1.637c-12.064,1.106-23.324,6.597-32.523,14.37c-1.616,1.365-3.17,2.799-4.652,4.295
			c-2.614,2.59-4.965,5.403-7.074,8.386c-6.523,9.229-10.691,20.098-12.874,31.163c-3.65,17.61-2.838,35.681-4.171,53.514
			c-0.837,8.425-2.399,17.811-9.255,23.575c-4.612,3.732-11.077,5.882-16.941,4.184c-5.53-1.686-9.739-7.098-9.819-12.905
			c-0.043-4.692,4.643-8.797,9.311-7.699c3.614,0.713,5.604,4.19,6.446,7.488c0.745-4.067,0.793-8.443-0.905-12.286
			c-2.201-3.961-5.932-7.445-10.575-8.07c-5.882-0.775-11.877,1.61-16.204,5.554c-6.98,5.863-11.14,15.081-10.309,24.219
			c0.794,9.72,6.484,18.374,13.495,24.863c6.931,7.377,16.489,12.423,26.649,13.173c11.914,0.917,23.624-3.589,33.418-10.086
			c17.524-11.598,30.245-29.277,38.624-48.332c7.295-16.83,12.518-34.517,19.443-51.494c2.143-5.252,4.447-10.436,7.029-15.506
			c0.313-0.616,0.629-1.232,0.951-1.845c3.049-6.979,7.277-13.401,12.119-19.272c4.092-4.686,8.715-8.877,13.049-13.347
			c6.193-5.485,13.496-10.296,21.076-13.637c9.91-5.208,20.281-9.302,30.766-13.13c-1.119-5.098-1.277-10.97-0.293-13.813
			c1.277-3.652,8.457-9.598,11.727-7.899c3.211,1.68,4.853,10.079,4.809,15.89c6.967-2.506,13.904-5.086,20.709-7.988
			c13.375-5.691,25.887-13.551,36.455-23.562c10.842-10.569,20.127-23.785,22.67-38.997
			C462.107,140.135,459.256,128.754,452.68,120.082z M326.744,207.469c-4.566,0.57-13.236-9.203-14.93-13.788
			c-1.459-3.949-0.894-14.384,2.926-15.207c5.096-1.103,15.641,10.48,17.133,15.823C332.89,198.026,330.389,207.015,326.744,207.469
			z M353.889,230.776c-4.559,0.719-13.533-8.762-15.395-13.295c-1.576-3.885-1.363-14.345,2.418-15.298
			c5.059-1.258,15.992,9.974,17.646,15.259C359.719,221.133,357.514,230.198,353.889,230.776z M364.556,206.71
			c-5.188,0.468-14.254-12.283-15.084-17.782c-0.576-3.82,2.99-12.432,6.68-12.451c4.598-0.006,12.023,10.739,13.152,15.512
			C370.264,196.061,368.449,206.373,364.556,206.71z"/>
	</g>
</g>
<g>
	<g>
		<path fill="#423426" d="M352.053,19.456c-7.16-8.896-16.416-17.358-28.131-19.118c-12.396-2.045-25.51,5.413-30.43,16.892
			c-2.549,5.858-1.885,13.539,3.482,17.63c4.08,4.103,10.303,4.153,15.635,3.323c-3.273-0.955-6.826-2.846-7.525-6.51
			c-1.061-4.445,2.615-8.951,7.072-9.279c7.16-0.366,13.799,5.852,14.104,12.986c0.283,7.662-4.154,15.422-11.072,18.82
			c-5.207,2.554-10.996,3.545-16.711,4.14c-10.93,1.048-21.926,0.812-32.875,1.495c-13.99,0.874-28.148,3.105-40.943,9.056
			c-8.348,3.852-15.966,9.353-22.221,16.098c-2.754,2.971-5.244,6.183-7.415,9.603c-1.57,2.473-2.976,5.053-4.191,7.73
			c-5.579,12.063-6.006,25.941-2.988,38.755c-7.01-1.569-14.245-2.393-21.423-1.637c-11.391,1.045-22.064,5.999-30.964,13.091
			c5.018,3.214,10.607,9.614,11.781,13.25c1.2,3.678-0.934,12.763-4.552,13.373c-4.559,0.759-13.62-8.638-15.512-13.165
			c-0.473-1.127-0.795-2.818-0.923-4.671c-8.903,10.194-14.344,23.121-16.952,36.335c-3.651,17.611-2.839,35.68-4.171,53.514
			c-0.837,8.425-2.4,17.81-9.255,23.575c-4.612,3.731-11.077,5.882-16.941,4.184c-5.53-1.686-9.739-7.098-9.82-12.906
			c-0.043-4.692,4.644-8.796,9.311-7.698c3.614,0.713,5.604,4.19,6.447,7.488c0.745-4.067,0.793-8.443-0.905-12.286
			c-2.2-3.961-5.932-7.445-10.575-8.071c-5.882-0.775-11.876,1.611-16.203,5.554c-6.98,5.864-11.14,15.082-10.31,24.22
			c0.794,9.719,6.484,18.373,13.495,24.863c6.931,7.376,16.489,12.423,26.649,13.173c11.914,0.917,23.624-3.59,33.418-10.086
			c17.523-11.598,30.244-29.277,38.624-48.332c5.182-11.956,9.317-24.343,13.761-36.601c-2.723-2.725-4.996-6.597-3.886-8.765
			c1.044-2.026,4.749-3.452,8.802-4.232c2.613-6.541,5.457-12.986,8.747-19.246c3.049-6.98,7.277-13.402,12.119-19.273
			c4.091-4.686,8.715-8.877,13.048-13.347c6.193-5.485,13.496-10.296,21.077-13.637c5.663-2.977,11.479-5.587,17.379-7.995
			c2.412-0.984,4.84-1.936,7.277-2.863c14.316-5.443,28.971-10.074,43.061-16.084c13.375-5.69,25.887-13.551,36.455-23.561
			c10.842-10.569,20.127-23.785,22.668-38.997C361.48,39.508,358.629,28.127,352.053,19.456z M131.564,205.335
			c-5.136,0.921-15.26-11.03-16.557-16.427c-0.908-3.761,1.926-12.652,5.59-12.983c4.59-0.389,12.892,9.689,14.436,14.332
			C136.343,194.252,135.402,204.661,131.564,205.335z M162.303,220.614c-4.67,2.36-17.808-6.136-20.603-10.941
			c-1.958-3.347-1.828-12.659,1.596-14.021c4.268-1.738,15.143,5.519,17.95,9.533C163.664,208.616,165.759,218.856,162.303,220.614z
			 M166.66,202.002c-4.604,0.272-12.594-10.065-13.989-14.754c-1.192-4.02,0.065-14.41,3.924-14.96
			c5.155-0.759,14.922,11.485,16.043,16.926C173.437,192.994,170.33,201.794,166.66,202.002z"/>
	</g>
</g>
<g>
	<path fill="#BAB4B1" d="M466.44,327.849c-6.042-0.001-15.341-9.385-17.535-14.174c-1.636-3.606-2.075-11.295-0.174-15.447
		c1.018-2.224,2.484-3.06,3.535-3.369c0.54-0.157,1.115-0.236,1.715-0.236c6.679,0,17.552,10.606,19.6,16.311
		c1.2,3.336,0.418,9.517-1.674,13.227c-1.425,2.527-3.127,3.34-4.305,3.577c-0.372,0.074-0.762,0.112-1.161,0.112H466.44z"/>
	<path fill="#423426" d="M453.982,297.122c5.377,0,15.488,9.761,17.246,14.655c1.31,3.644-0.514,12.782-4.119,13.508
		c-0.213,0.043-0.436,0.063-0.668,0.063c-4.721,0-13.318-8.47-15.264-12.715c-1.732-3.82-1.953-14.273,1.795-15.377
		C453.285,297.166,453.623,297.122,453.982,297.122 M453.982,292.122c-0.838,0-1.648,0.112-2.41,0.335
		c-1.562,0.46-3.704,1.649-5.114,4.729c-2.235,4.884-1.756,13.273,0.166,17.513c2.135,4.657,12.079,15.649,19.817,15.649
		c0.564,0,1.119-0.055,1.651-0.161c1.692-0.341,4.103-1.449,5.992-4.801c2.476-4.389,3.305-11.254,1.849-15.302
		C473.809,304.172,462.307,292.122,453.982,292.122L453.982,292.122z"/>
</g>
<g>
	<path fill="#BAB4B1" d="M21.932,86.049c-6.01,0-15.461-9.053-17.748-13.673C2.443,68.807,1.78,61.128,3.559,56.928
		c0.953-2.249,2.392-3.125,3.433-3.465c0.598-0.192,1.237-0.288,1.911-0.288c6.642,0,17.704,10.232,19.875,15.735
		c1.288,3.318,0.674,9.521-1.309,13.287c-1.349,2.563-3.022,3.427-4.187,3.702C22.845,86,22.396,86.049,21.932,86.049z"/>
	<path fill="#423426" d="M8.903,55.675c5.419,0,15.655,9.351,17.549,14.152c1.4,3.606-0.163,12.795-3.743,13.639
		c-0.244,0.056-0.504,0.083-0.776,0.083c-4.74,0-13.453-8.13-15.507-12.282C4.584,67.494,4.053,57.053,7.768,55.84
		C8.116,55.728,8.495,55.675,8.903,55.675 M8.903,50.675c-0.933,0-1.83,0.136-2.664,0.404c-1.556,0.508-3.662,1.759-4.981,4.874
		c-2.093,4.94-1.37,13.317,0.674,17.507c2.289,4.626,12.202,15.089,20,15.089c0.651,0,1.289-0.071,1.895-0.21
		c1.699-0.4,4.066-1.582,5.854-4.977c2.345-4.455,2.987-11.337,1.432-15.344c-1.851-4.693-7.268-9.517-8.884-10.884
		C18.746,54.187,13.607,50.675,8.903,50.675L8.903,50.675z"/>
</g>
<g>
	<path fill="#BAB4B1" d="M47.784,105.408c-6.021-0.001-15.457-9.048-17.732-13.664c-1.742-3.528-2.417-11.195-0.641-15.422
		c0.951-2.263,2.394-3.145,3.436-3.487c0.44-0.142,0.922-0.212,1.443-0.212c4.735,0,16.858,6.774,20.352,15.668
		c1.286,3.32,0.668,9.52-1.317,13.278c-1.351,2.556-3.024,3.418-4.19,3.689C48.703,105.358,48.25,105.408,47.784,105.408
		C47.784,105.408,47.784,105.408,47.784,105.408z"/>
	<path fill="#423426" d="M34.289,75.123c3.756,0,14.9,6.127,18.025,14.082c1.394,3.599-0.162,12.782-3.749,13.619
		c-0.246,0.057-0.507,0.084-0.781,0.084c-4.738,0-13.442-8.114-15.49-12.269c-1.861-3.768-2.373-14.215,1.33-15.428
		C33.807,75.151,34.031,75.123,34.289,75.123 M34.289,70.123c-0.782,0-1.522,0.111-2.201,0.329c-1.557,0.51-3.666,1.768-4.983,4.901
		c-2.088,4.97-1.35,13.337,0.706,17.499c2.264,4.596,12.16,15.056,19.973,15.056c0.656,0,1.297-0.071,1.908-0.212
		c1.683-0.393,4.052-1.569,5.843-4.959c2.349-4.446,2.996-11.327,1.442-15.338C52.985,77.238,39.874,70.123,34.289,70.123
		L34.289,70.123z"/>
</g>
<g>
	<path fill="#BAB4B1" d="M73.681,124.746c-6.032,0-15.484-9.041-17.761-13.656c-1.743-3.536-2.412-11.204-0.63-15.423
		c0.953-2.255,2.395-3.132,3.437-3.47c0.587-0.194,1.241-0.294,1.93-0.294c6.641,0,17.688,10.212,19.852,15.705
		c1.295,3.304,0.696,9.506-1.28,13.276c-1.347,2.569-3.021,3.436-4.189,3.711C74.601,124.696,74.148,124.746,73.681,124.746z"/>
	<path fill="#423426" d="M60.657,94.403c5.418,0,15.64,9.334,17.525,14.121c1.414,3.606-0.136,12.795-3.716,13.638
		c-0.247,0.057-0.509,0.084-0.785,0.084c-4.75,0-13.465-8.101-15.519-12.262c-1.854-3.762-2.366-14.208,1.336-15.409
		C59.852,94.458,60.241,94.403,60.657,94.403 M60.657,89.403c-0.956,0-1.873,0.143-2.725,0.423
		c-1.515,0.491-3.625,1.742-4.945,4.868c-2.096,4.962-1.364,13.332,0.69,17.501c2.269,4.599,12.178,15.052,20.003,15.052
		c0.656,0,1.298-0.072,1.909-0.212c1.697-0.4,4.067-1.585,5.853-4.989c2.338-4.46,2.964-11.345,1.395-15.346
		c-1.838-4.668-7.25-9.484-8.865-10.849C70.493,92.909,65.359,89.403,60.657,89.403L60.657,89.403z"/>
</g>
<g>
	<path fill="#BAB4B1" d="M99.586,144.053c-6.006-0.001-15.462-9.003-17.752-13.598c-1.757-3.562-2.447-11.246-0.675-15.46
		c0.947-2.252,2.385-3.131,3.425-3.472c0.594-0.196,1.249-0.296,1.94-0.296c6.639,0,17.708,10.192,19.884,15.674
		c1.3,3.296,0.709,9.495-1.262,13.271c-1.347,2.579-3.025,3.451-4.195,3.729C100.513,144.002,100.057,144.053,99.586,144.053
		C99.587,144.053,99.587,144.053,99.586,144.053z"/>
	<path fill="#423426" d="M86.524,113.727c5.42,0,15.658,9.304,17.56,14.096c1.42,3.599-0.124,12.795-3.71,13.644
		c-0.248,0.058-0.511,0.085-0.788,0.085c-4.736,0-13.457-8.083-15.516-12.213c-1.868-3.787-2.413-14.228,1.291-15.44
		C85.717,113.783,86.105,113.727,86.524,113.727 M86.524,108.727c-0.957,0-1.875,0.143-2.729,0.424
		c-1.524,0.499-3.629,1.754-4.941,4.875c-2.084,4.956-1.332,13.34,0.733,17.526c2.291,4.595,12.208,15.001,20,15.001
		c0.661,0,1.308-0.073,1.922-0.216c1.696-0.402,4.069-1.592,5.853-5.009c2.332-4.466,2.948-11.348,1.374-15.34
		c-1.854-4.669-7.275-9.474-8.893-10.835C96.361,112.222,91.223,108.727,86.524,108.727L86.524,108.727z"/>
</g>
<g>
	<path fill="#BAB4B1" d="M142.277,181.687c-6.598-0.001-18.033-13.843-19.837-18.159c-0.725-1.729-1.004-3.925-1.111-5.463
		c-0.135-1.958-0.527-11.798,5.072-13.234c0.472-0.122,0.978-0.184,1.501-0.184c1.859,0,4.039,0.792,6.476,2.352
		c5.108,3.272,13.795,13.542,15.239,18.015c1.093,3.351,0.117,9.501-2.094,13.153c-1.507,2.492-3.237,3.253-4.422,3.453
		C142.832,181.665,142.556,181.687,142.277,181.687C142.278,181.687,142.278,181.687,142.277,181.687z"/>
	<path fill="#423426" d="M127.902,147.147c1.456,0,3.252,0.757,5.128,1.958c5.018,3.214,13.034,13.041,14.207,16.677
		c1.2,3.678-0.934,12.763-4.552,13.373c-0.13,0.021-0.266,0.032-0.408,0.032c-4.801,0-15.693-12.226-17.531-16.623
		c-0.473-1.128-0.795-2.818-0.923-4.671c-0.311-4.499,0.531-9.956,3.199-10.64C127.298,147.181,127.592,147.147,127.902,147.147
		 M127.902,142.147c-0.734,0-1.45,0.089-2.129,0.264c-7.322,1.879-7.161,12.589-6.938,15.826c0.12,1.727,0.442,4.213,1.3,6.26
		c1.988,4.756,14.004,19.69,22.143,19.69c0.416,0,0.829-0.034,1.229-0.1c1.711-0.289,4.158-1.323,6.156-4.625
		c2.615-4.321,3.659-11.154,2.329-15.231c-1.624-5.034-10.595-15.705-16.264-19.337C132.839,143.046,130.28,142.147,127.902,142.147
		L127.902,142.147z"/>
</g>
<g>
	<path fill="#BAB4B1" d="M166.614,203.048c-6.404-0.001-15.371-10.429-17.193-14.861c-1.498-3.652-1.637-11.351,0.435-15.435
		c1.108-2.185,2.61-2.957,3.675-3.221c0.453-0.114,0.946-0.173,1.454-0.173c6.892,0,17.513,11.708,19.198,17.076
		c1.069,3.352,0.046,9.49-2.193,13.124c-1.531,2.484-3.271,3.23-4.461,3.419C167.237,203.024,166.928,203.048,166.614,203.048
		C166.614,203.048,166.614,203.048,166.614,203.048z"/>
	<path fill="#423426" d="M154.985,171.857c5.337,0,15.237,10.307,16.813,15.325c1.174,3.682-1.031,12.75-4.661,13.326
		c-0.168,0.027-0.342,0.04-0.522,0.04c-4.686,0-13.09-8.954-14.881-13.311c-1.591-3.88-1.386-14.343,2.398-15.279
		C154.4,171.89,154.685,171.857,154.985,171.857 M154.985,166.857c-0.714,0-1.413,0.085-2.077,0.252
		c-1.55,0.384-3.746,1.483-5.282,4.511c-2.438,4.805-2.285,13.21-0.519,17.514c2.003,4.874,11.699,16.413,19.507,16.413
		c0.446,0,0.89-0.035,1.318-0.104c1.695-0.27,4.157-1.283,6.185-4.575c2.65-4.3,3.747-11.122,2.444-15.207
		C174.622,179.485,163.403,166.857,154.985,166.857L154.985,166.857z"/>
</g>
<g>
	<path fill="#BAB4B1" d="M214.222,262.846c-6.211-0.001-15.645-8.609-18-12.917c-1.891-3.466-2.877-11.102-1.266-15.391
		c0.861-2.293,2.269-3.226,3.298-3.604c0.662-0.248,1.409-0.375,2.208-0.375c6.756,0,17.829,9.561,20.178,14.901
		c1.431,3.215,1.089,9.428-0.736,13.286c-1.249,2.637-2.896,3.57-4.058,3.89c-0.503,0.139-1.05,0.21-1.623,0.21
		C214.223,262.846,214.222,262.846,214.222,262.846z"/>
	<path fill="#423426" d="M200.462,233.059c5.467,0,15.837,8.743,17.89,13.408c1.572,3.531,0.378,12.785-3.167,13.758
		c-0.297,0.082-0.619,0.121-0.962,0.121c-4.784,0-13.618-7.611-15.807-11.616c-2.009-3.682-2.956-14.104,0.702-15.45
		C199.52,233.129,199.972,233.059,200.462,233.059 M200.462,228.059c-1.099,0-2.14,0.181-3.093,0.537
		c-1.498,0.551-3.559,1.885-4.753,5.064c-1.895,5.044-0.817,13.381,1.411,17.465c2.732,4.998,12.896,14.222,20.196,14.222
		c0.799,0,1.572-0.102,2.297-0.303c1.655-0.454,3.99-1.732,5.644-5.228c2.161-4.565,2.5-11.466,0.756-15.383
		C220.216,238.286,208.328,228.059,200.462,228.059L200.462,228.059z"/>
</g>
<g>
	<path fill="#BAB4B1" d="M192.024,243.874c-6.841-0.001-17.983-8.622-20.571-13.627c-1.629-3.117-1.683-9.337-0.11-13.3
		c1.075-2.712,2.657-3.751,3.795-4.146c0.631-0.218,1.329-0.329,2.076-0.329c5.824,0,15.537,7.34,18.319,11.776
		c2.099,3.313,3.573,10.864,2.246,15.259c-0.711,2.356-2.057,3.386-3.061,3.834C193.929,243.694,193.021,243.874,192.024,243.874
		L192.024,243.874z"/>
	<path fill="#423426" d="M177.214,214.972c4.85,0,13.824,6.814,16.201,10.604c2.25,3.552,3.846,13.892,0.284,15.481
		c-0.483,0.216-1.047,0.316-1.675,0.316c-5.559,0-16.058-7.842-18.351-12.275c-1.788-3.421-1.192-12.729,2.284-13.936
		C176.333,215.033,176.755,214.972,177.214,214.972 M177.214,209.972c-1.026,0-1.999,0.157-2.893,0.467
		c-1.634,0.567-3.878,1.995-5.302,5.587c-1.86,4.689-1.76,11.593,0.223,15.389c2.909,5.624,14.769,14.96,22.782,14.96
		c1.352,0,2.602-0.254,3.718-0.753c1.475-0.658,3.446-2.131,4.431-5.392c1.56-5.168-0.052-13.411-2.534-17.329
		C194.799,218.372,184.451,209.972,177.214,209.972L177.214,209.972z"/>
</g>
<g>
	<path fill="#BAB4B1" d="M219.333,270.903c-0.777-1.608-1.298-3.018-1.548-4.192c-0.82-3.856,0.416-11.456,3.179-15.11
		c1.48-1.958,3.096-2.456,4.191-2.528c0.124-0.009,0.247-0.013,0.372-0.013c2.899,0,6.167,2.183,9.713,6.485l1.57,1.906
		l-1.886,1.593c-1.562,1.319-3.072,2.714-4.49,4.145c-2.448,2.426-4.733,5.135-6.809,8.069l-2.447,3.461L219.333,270.903z"/>
	<path fill="#423426" d="M225.527,251.56c2.273,0,5.175,2.409,7.783,5.575c-1.616,1.365-3.17,2.799-4.652,4.295
		c-2.614,2.59-4.965,5.403-7.074,8.386c-0.663-1.372-1.142-2.632-1.354-3.625c-0.875-4.118,1.2-14.365,5.091-14.624
		C225.389,251.561,225.458,251.56,225.527,251.56 M225.527,246.56c-0.181,0-0.358,0.006-0.536,0.018
		c-1.617,0.107-3.972,0.805-6.021,3.515c-3.249,4.298-4.597,12.593-3.63,17.139c0.291,1.371,0.878,2.972,1.742,4.761l3.69,7.634
		l4.895-6.923c1.991-2.816,4.182-5.413,6.51-7.721c1.399-1.411,2.855-2.756,4.36-4.027l3.772-3.188l-3.14-3.811
		C233.126,249.048,229.209,246.56,225.527,246.56L225.527,246.56z"/>
</g>
<g>
	<path fill="#BAB4B1" d="M292.14,309.263c-4.349,0-10.121-1.236-14.037-3.007l-2.195-0.992l0.91-2.23
		c2.378-5.83,4.706-10.964,7.116-15.696l0.905-1.777l1.935,0.488c2.223,0.562,6.311,1.787,8.731,3.689
		c2.768,2.156,5.388,7.791,5.599,12.052c0.145,2.926-0.868,4.531-1.742,5.364c-1.477,1.401-3.905,2.11-7.221,2.11
		C292.141,309.263,292.141,309.263,292.14,309.263z"/>
	<path fill="#423426" d="M286.162,288.472c3.301,0.834,6.244,2.009,7.799,3.23c3.055,2.38,6.342,11.104,3.678,13.639
		c-1.067,1.013-3.096,1.422-5.498,1.422c-4.264,0-9.701-1.29-13.008-2.785C281.275,298.726,283.58,293.541,286.162,288.472
		 M283.517,282.646l-1.811,3.556c-2.442,4.796-4.799,9.992-7.204,15.887l-1.819,4.461l4.39,1.983
		c4.206,1.901,10.402,3.229,15.067,3.229c4.034,0,6.959-0.914,8.94-2.796c1.258-1.196,2.712-3.431,2.52-7.302
		c-0.249-5.041-3.195-11.28-6.567-13.907c-2.767-2.174-7.233-3.523-9.647-4.134L283.517,282.646L283.517,282.646z"/>
</g>
<g>
	<path fill="#BAB4B1" d="M313.711,303.886c-4.061,0-11.119-2.658-14.131-6.084c-1.591-1.809-1.759-3.47-1.62-4.545
		c0.902-7.148,16.86-13.104,22.597-13.104c0.233,0,0.458,0.007,0.672,0.022c3.553,0.257,8.894,3.46,11.443,6.856
		c1.739,2.316,1.805,4.201,1.555,5.375c-1.366,6.321-15.159,11.38-20.367,11.479L313.711,303.886z"/>
	<path fill="#423426" d="M320.556,282.653c0.176,0,0.345,0.005,0.506,0.016c3.857,0.279,11.49,5.604,10.719,9.215
		c-0.973,4.501-13.08,9.409-17.969,9.501c-0.033,0.001-0.067,0.001-0.102,0.001c-4.267,0-13.768-3.969-13.271-7.809
		C301.075,288.546,314.69,282.653,320.556,282.653 M320.556,277.653c-4.443,0-10.274,2.118-14.251,4.101
		c-6.666,3.323-10.309,7.09-10.827,11.197c-0.203,1.572,0.017,3.99,2.225,6.502c3.488,3.968,11.328,6.933,16.008,6.933l0.178-0.002
		c4.98-0.093,20.957-5.01,22.779-13.444c0.362-1.692,0.307-4.341-1.997-7.409c-3.016-4.018-8.959-7.538-13.247-7.849
		C321.128,277.662,320.847,277.653,320.556,277.653L320.556,277.653z"/>
</g>
<g>
	<path fill="#BAB4B1" d="M334.795,288.496c-2.498,0-10.743-0.394-11.92-5.456c-1.626-7.177,11.889-18.716,17.333-20.318
		c0.83-0.242,1.807-0.363,2.906-0.363c4.355,0,12.783,2.161,13.499,7.369c0.906,6.431-10.313,15.921-15.178,17.791
		c-1.618,0.621-4.038,0.978-6.639,0.978C334.796,288.496,334.796,288.496,334.795,288.496z"/>
	<path fill="#423426" d="M343.114,264.858c4.247,0,10.605,2.171,11.023,5.21c0.643,4.559-9.008,13.353-13.598,15.116
		c-1.356,0.521-3.492,0.811-5.743,0.811c-4.251,0-8.908-1.037-9.485-3.521c-1.152-5.085,10.272-15.785,15.603-17.354
		C341.525,264.942,342.278,264.858,343.114,264.858 M343.114,259.858c-1.337,0-2.548,0.155-3.6,0.462
		c-4.185,1.231-9.165,5.296-12.435,8.689c-5.344,5.547-7.58,10.449-6.646,14.57c1.097,4.723,6.329,7.416,14.361,7.416
		c1.701,0,4.943-0.148,7.536-1.144c4.639-1.783,17.968-11.885,16.756-20.482C358.1,262.187,347.899,259.858,343.114,259.858
		L343.114,259.858z"/>
</g>
<g>
	<path fill="#BAB4B1" d="M351.034,266.359c-2.926-0.001-4.422-1.188-5.162-2.184c-4.38-5.919,3.377-21.899,7.729-25.547
		c2.487-2.076,7.243-3.16,10.658-3.16c3.507,0,5.993,1.035,7.191,2.993c3.405,5.503-3.052,18.704-6.752,22.378
		C362.055,263.448,355.653,266.359,351.034,266.359C351.035,266.359,351.035,266.359,351.034,266.359z"/>
	<path fill="#423426" d="M364.26,237.968c2.286,0,4.277,0.52,5.059,1.799c2.42,3.91-2.906,15.85-6.381,19.299
		c-2.196,2.167-8.035,4.794-11.902,4.794c-1.397,0-2.538-0.344-3.156-1.175c-3.1-4.189,3.08-18.58,7.328-22.14
		C356.972,239.072,360.93,237.968,364.26,237.968 M364.26,232.968c-3.746,0-9.18,1.17-12.257,3.738
		c-5.005,4.194-13.66,21.498-8.143,28.953c1.089,1.464,3.211,3.2,7.176,3.2c5.359,0,12.425-3.286,15.414-6.234
		c3.538-3.513,11.678-18.126,7.121-25.489C372.415,235.247,369.848,232.968,364.26,232.968L364.26,232.968z"/>
</g>
<g>
	<path fill="#BAB4B1" d="M308.118,179.299c-4.725,0-11.352-0.942-14.735-3.011c-2.44-1.498-10.364-8.359-10.953-13.356
		c-0.168-1.43,0.25-2.729,1.179-3.657c2.667-2.667,6.638-4.02,11.8-4.02c6.34,0,12.734,2.055,15.485,3.436
		c4.107,2.064,11.122,9.837,9.926,15.048l-0.237,1.034l-0.909,0.548c-1.545,0.932-3.075,1.938-4.547,2.993l-0.42,0.301l-0.505,0.11
		c-1.749,0.381-3.796,0.574-6.081,0.574C308.119,179.299,308.119,179.299,308.118,179.299z"/>
	<path fill="#423426" d="M295.408,157.755c5.723,0,11.751,1.859,14.363,3.17c3.461,1.739,9.434,8.671,8.611,12.255
		c-1.611,0.971-3.184,2.006-4.713,3.102c-1.636,0.356-3.556,0.517-5.552,0.517c-5.184,0-10.88-1.084-13.431-2.644
		c-3.295-2.023-11.917-10.507-9.311-13.112C287.815,158.603,291.542,157.755,295.408,157.755 M295.408,152.755
		c-5.85,0-10.414,1.599-13.567,4.752c-1.481,1.48-2.153,3.511-1.894,5.717c0.738,6.263,9.765,13.743,12.124,15.192
		c3.824,2.339,10.813,3.383,16.047,3.383c2.466,0,4.691-0.212,6.615-0.631l1.009-0.22l0.84-0.601
		c1.418-1.016,2.893-1.987,4.382-2.884l1.817-1.095l0.475-2.069c1.63-7.101-7.249-15.835-11.239-17.841
		C309.052,154.969,302.182,152.755,295.408,152.755L295.408,152.755z"/>
</g>
<g>
	<path fill="#BAB4B1" d="M268.647,188.054c-0.536,0-1.039-0.031-1.495-0.091c-3.509-0.463-8.641-3.993-10.979-7.553
		c-1.591-2.422-1.533-4.306-1.205-5.46c1.754-6.12,15.443-10.172,20.521-10.172c0.19,0,0.371,0.004,0.546,0.013
		c3.914,0.176,10.946,3.289,13.794,6.889c1.522,1.925,1.598,3.611,1.393,4.687C289.873,183.398,274.513,188.054,268.647,188.054
		L268.647,188.054z"/>
	<path fill="#423426" d="M275.49,167.277c0.147,0,0.288,0.003,0.424,0.01c4.195,0.188,13.578,4.799,12.854,8.612
		c-0.923,4.808-13.942,9.654-20.12,9.654c-0.422,0-0.813-0.022-1.165-0.069c-3.826-0.505-11.115-6.316-10.109-9.851
		C258.609,171.321,270.34,167.277,275.49,167.277 M275.49,162.277c-5.656,0-20.693,4.198-22.924,11.979
		c-0.474,1.665-0.593,4.312,1.518,7.525c2.767,4.212,8.483,8.097,12.744,8.66c0.56,0.074,1.174,0.112,1.819,0.112
		c3.803,0,9.181-1.319,14.035-3.443c6.537-2.86,10.236-6.315,10.995-10.268c0.304-1.597,0.221-4.048-1.887-6.714
		c-3.347-4.233-11.024-7.628-15.652-7.836C275.944,162.283,275.722,162.277,275.49,162.277L275.49,162.277z"/>
</g>
<g>
	<path fill="#BAB4B1" d="M239.641,202.675c-0.164,0-0.325-0.004-0.479-0.011c-3.571-0.205-8.968-3.326-11.569-6.681
		c-1.766-2.277-1.86-4.154-1.629-5.327c1.267-6.372,14.979-11.655,20.185-11.828l0.306-0.005c4.09,0,11.146,2.579,14.112,5.903
		c1.572,1.761,1.758,3.396,1.638,4.457c-0.812,7.36-16.788,13.491-22.563,13.491C239.641,202.675,239.641,202.675,239.641,202.675z"
		/>
	<path fill="#423426" d="M246.455,181.324c4.307,0,13.699,3.768,13.266,7.578c-0.559,5.068-14.308,11.274-20.079,11.274
		c-0.122,0-0.241-0.003-0.356-0.008c-3.852-0.221-11.581-5.409-10.868-9.027c0.901-4.533,12.919-9.65,17.815-9.813
		C246.305,181.325,246.379,181.324,246.455,181.324 M246.455,176.324c-0.131,0-0.26,0.002-0.386,0.006
		c-4.965,0.165-20.866,5.334-22.556,13.835c-0.334,1.69-0.237,4.33,2.104,7.351c3.076,3.968,9.079,7.397,13.381,7.644
		c0.234,0.012,0.436,0.017,0.643,0.017c4.408,0,10.272-2.218,14.29-4.294c6.684-3.454,10.304-7.3,10.759-11.432
		c0.177-1.551-0.069-3.936-2.258-6.387C258.889,179.091,251.168,176.324,246.455,176.324L246.455,176.324z"/>
</g>
<g>
	<path fill="#BAB4B1" d="M211.596,217.472c-0.917,0-1.742-0.07-2.451-0.208c-3.472-0.662-8.395-4.479-10.524-8.169
		c-1.451-2.512-1.285-4.39-0.89-5.522c2.062-5.925,15.134-8.981,20.257-8.981c0.493,0,0.955,0.023,1.373,0.068
		c3.913,0.408,10.755,3.93,13.372,7.69c1.402,2.016,1.371,3.71,1.097,4.775C232.231,213.438,218.331,217.472,211.596,217.472
		L211.596,217.472z"/>
	<path fill="#423426" d="M217.987,197.091c0.4,0,0.771,0.018,1.105,0.054c4.169,0.435,13.287,5.57,12.315,9.357
		c-1.146,4.529-13.37,8.47-19.812,8.47c-0.743,0-1.409-0.052-1.972-0.162c-3.813-0.727-10.739-6.952-9.533-10.415
		C201.504,200.335,212.535,197.091,217.987,197.091 M217.987,192.091c-5.565,0-19.976,3.068-22.618,10.661
		c-0.566,1.624-0.837,4.262,1.087,7.593c2.52,4.365,8.008,8.571,12.232,9.377c0.845,0.164,1.831,0.25,2.908,0.25
		c6.137,0,22.482-3.642,24.659-12.243c0.399-1.555,0.472-4.015-1.471-6.808c-3.077-4.423-10.548-8.268-15.173-8.749
		C219.12,192.119,218.569,192.091,217.987,192.091L217.987,192.091z"/>
</g>
<g>
	<path fill="#BAB4B1" d="M181.998,224.25c-2.427,0-4.401-0.252-5.868-0.75c-2.091-0.711-4.077-2.491-5.075-3.489
		c-3.299-3.301-6.172-8.1-4.344-11.672c1.662-3.227,6.657-4.797,10.556-5.547c2.482-0.477,5.16-0.741,7.54-0.741
		c1.83,0,3.366,0.151,4.565,0.45c3.811,0.945,10.09,5.377,12.167,9.464c1.113,2.189,0.853,3.861,0.439,4.878
		c-2.195,5.395-13.419,7.407-19.979,7.407C181.999,224.25,181.998,224.25,181.998,224.25z"/>
	<path fill="#423426" d="M184.806,204.551c1.567,0,2.949,0.124,3.961,0.376c4.054,1.005,12.367,7.359,10.895,10.973
		c-1.506,3.702-10.96,5.851-17.665,5.851c-2.045,0-3.835-0.2-5.065-0.617c-1.229-0.418-2.727-1.507-4.11-2.89
		c-2.723-2.725-4.996-6.597-3.886-8.765c1.044-2.026,4.749-3.452,8.802-4.232C180.132,204.786,182.646,204.551,184.806,204.551
		 M184.806,199.551c-2.533,0-5.379,0.279-8.012,0.786c-6.462,1.243-10.601,3.548-12.303,6.853
		c-2.445,4.775,0.874,10.665,4.795,14.588c1.407,1.408,3.597,3.26,6.037,4.09c1.729,0.586,3.974,0.883,6.674,0.883
		c0.187,0,18.691-0.102,22.296-8.967c0.61-1.497,1.015-3.921-0.526-6.952c-2.443-4.804-9.299-9.642-13.796-10.757
		C188.579,199.727,186.84,199.551,184.806,199.551L184.806,199.551z"/>
</g>
<g>
	<path fill="#BAB4B1" d="M160.326,223.52c-6.811-0.001-18.097-7.967-20.787-12.589c-1.791-3.06-2.148-9.279-0.763-13.304
		c0.945-2.746,2.477-3.852,3.596-4.297c0.712-0.291,1.544-0.441,2.453-0.441c5.896,0,15.539,6.673,18.47,10.864
		c2.257,3.201,4.1,10.665,2.995,15.12c-0.59,2.382-1.877,3.474-2.853,3.97c-0.892,0.45-1.936,0.678-3.109,0.678H160.326z"/>
	<path fill="#423426" d="M144.824,195.389c4.913,0,13.906,6.201,16.421,9.797c2.419,3.43,4.514,13.67,1.058,15.428
		c-0.552,0.278-1.22,0.406-1.976,0.406c-5.651,0-16.161-7.109-18.627-11.347c-1.958-3.347-1.828-12.659,1.596-14.021
		C143.739,195.472,144.253,195.389,144.824,195.389 M144.824,190.389c-1.233,0-2.382,0.213-3.414,0.633
		c-1.568,0.624-3.745,2.149-4.998,5.792c-1.64,4.765-1.204,11.667,0.972,15.386c3.36,5.773,15.551,13.821,22.942,13.821
		c1.569,0,2.993-0.317,4.232-0.944c1.451-0.737,3.34-2.303,4.158-5.601c1.299-5.239-0.715-13.386-3.385-17.171
		C162.059,197.627,151.769,190.389,144.824,190.389L144.824,190.389z"/>
</g>
<g>
	<path fill="#BAB4B1" d="M130.976,207.885c-6.963-0.001-17.011-12.612-18.4-18.393c-0.829-3.43,0.625-9.483,3.111-12.951
		c1.7-2.371,3.486-2.998,4.686-3.106c0.169-0.015,0.327-0.021,0.488-0.021c6.355,0,14.997,11.398,16.545,16.054
		c1.234,3.764,0.827,11.455-1.523,15.375c-1.257,2.098-2.807,2.764-3.886,2.954c-0.323,0.058-0.669,0.088-1.019,0.088H130.976z"/>
	<path fill="#423426" d="M120.861,175.914c4.638,0,12.658,9.787,14.173,14.343c1.31,3.995,0.368,14.403-3.47,15.078
		c-0.189,0.034-0.385,0.05-0.587,0.05c-5.283,0-14.721-11.279-15.97-16.477c-0.908-3.761,1.926-12.652,5.59-12.983
		C120.684,175.918,120.772,175.914,120.861,175.914 M120.861,170.914c-0.232,0-0.46,0.009-0.685,0.029
		c-1.747,0.157-4.269,1.001-6.52,4.141c-2.941,4.102-4.515,10.831-3.509,14.997c0.97,4.036,4.585,9.048,7.644,12.39
		c3.305,3.61,8.275,7.914,13.186,7.914c0.499,0,0.993-0.044,1.47-0.129c1.574-0.277,3.837-1.221,5.58-4.127
		c2.765-4.611,3.209-13.005,1.759-17.43C138.024,183.406,128.821,170.914,120.861,170.914L120.861,170.914z"/>
</g>
<g>
	<path fill="#BAB4B1" d="M109.333,181.671c-0.501,0-0.992-0.075-1.46-0.223c-7.046-2.207-10.148-19.703-8.752-25.215
		c1.015-4.13,7.37-11.007,12.336-11.007c0.701,0,1.367,0.127,1.978,0.379c6.007,2.489,8.53,16.958,7.69,22.092
		C120.483,171.721,115.083,181.671,109.333,181.671C109.333,181.671,109.333,181.671,109.333,181.671z"/>
	<path fill="#423426" d="M111.457,147.726c0.366,0,0.71,0.061,1.027,0.191c4.254,1.763,6.965,14.539,6.174,19.377
		c-0.62,3.883-5.639,11.878-9.325,11.878c-0.242,0-0.478-0.035-0.707-0.107c-4.987-1.563-8.444-16.835-7.082-22.218
		C102.379,153.449,107.905,147.726,111.457,147.726 M111.457,142.726c-6.398,0-13.514,7.822-14.769,12.927
		c-1.594,6.298,1.555,25.397,10.442,28.183c0.701,0.221,1.446,0.335,2.202,0.335c7.596,0,13.517-11.42,14.263-16.089
		c0.797-4.875-1.189-21.465-9.197-24.784C113.472,142.916,112.486,142.726,111.457,142.726L111.457,142.726z"/>
</g>
<g>
	<path fill="#BAB4B1" d="M112.487,146.948c-5.323,0-7.302-1.994-8.026-3.666c-2.922-6.753,8.269-20.561,13.339-23.126
		c2.045-1.036,4.811-1.19,6.277-1.19c4.564,0,9.886,1.334,11.139,5.08c2.047,6.161-7.244,17.54-11.677,20.27
		C121.073,145.84,116.423,146.948,112.487,146.948C112.488,146.948,112.488,146.948,112.487,146.948z"/>
	<path fill="#423426" d="M124.078,121.465c3.794,0,8.004,1.088,8.768,3.373c1.453,4.371-6.434,14.772-10.616,17.348
		c-2.017,1.247-6.204,2.263-9.742,2.263c-2.72,0-5.058-0.6-5.732-2.159c-2.069-4.78,7.212-17.393,12.173-19.904
		C120.131,121.777,122.044,121.465,124.078,121.465 M124.078,116.465c-2.063,0-5.024,0.253-7.407,1.46
		c-3.881,1.964-8.041,6.871-10.638,10.809c-4.245,6.433-5.545,11.662-3.865,15.543c1.02,2.358,3.639,5.172,10.32,5.172
		c4.417,0,9.504-1.237,12.371-3.01c4.217-2.596,15.463-14.961,12.732-23.178C135.481,116.955,126.715,116.465,124.078,116.465
		L124.078,116.465z"/>
</g>
<g>
	<path fill="#BAB4B1" d="M132.692,118.811c-5.666,0-12.55-1.64-13.308-6.26c-1.196-7.268,13.021-17.93,18.566-19.179
		c0.614-0.139,1.314-0.21,2.077-0.21c4.622,0,13.459,2.823,13.869,8.219c0.503,6.472-11.294,15.249-16.269,16.815
		C136.014,118.704,134.053,118.811,132.692,118.811z"/>
	<path fill="#423426" d="M140.028,95.662c4.218,0,11.13,2.677,11.377,5.908c0.357,4.598-9.851,12.769-14.527,14.241
		c-1.05,0.331-2.543,0.5-4.185,0.5c-4.603,0-10.376-1.33-10.84-4.164c-0.849-5.156,11.239-15.117,16.648-16.336
		C138.946,95.71,139.463,95.662,140.028,95.662 M140.028,90.662c-0.949,0-1.835,0.092-2.634,0.273
		c-6.36,1.433-21.984,12.861-20.476,22.024c1.009,6.157,8.81,8.352,15.774,8.352c1.536,0,3.769-0.127,5.688-0.731
		c4.742-1.493,18.682-10.751,18.01-19.398C155.831,93.841,145.285,90.662,140.028,90.662L140.028,90.662z"/>
</g>
<g>
	<path fill="#BAB4B1" d="M158.893,98.154c-3.949-0.098-11.059-3.054-13.968-6.579c-1.563-1.893-1.673-3.583-1.491-4.667
		c1.199-7.046,16.477-12.192,22.598-12.192c0.429,0,0.831,0.021,1.201,0.062c3.49,0.365,8.697,3.763,11.127,7.27
		c1.663,2.4,1.65,4.296,1.346,5.463c-1.591,6.149-15.247,10.646-20.558,10.646L158.893,98.154z"/>
	<path fill="#423426" d="M166.032,77.217c0.33,0,0.64,0.015,0.924,0.047c3.838,0.401,11.257,6.057,10.33,9.618
		c-1.139,4.403-13.126,8.776-18.139,8.776c-0.065,0-0.13-0.001-0.194-0.002c-4.202-0.104-13.703-4.468-13.054-8.332
		C146.73,82.444,159.952,77.217,166.032,77.217 M166.032,72.217c-6.718,0-23.576,5.537-25.062,14.267
		c-0.27,1.609-0.136,4.063,2.027,6.684c3.421,4.146,11.181,7.372,15.833,7.486c0.105,0.002,0.211,0.004,0.317,0.004
		c5.073,0,20.854-4.306,22.979-12.523c0.434-1.666,0.491-4.329-1.712-7.509c-2.875-4.15-8.679-7.888-12.938-8.334
		C167.046,72.243,166.549,72.217,166.032,72.217L166.032,72.217z"/>
</g>
<g>
	<path fill="#BAB4B1" d="M197.71,98.072c-5.12-0.647-11.116-2.715-13.947-4.81c-3.168-2.351-7.27-8.863-7.617-13.427
		c-0.186-2.442,0.694-3.883,1.466-4.661c1.466-1.482,3.886-2.234,7.19-2.234c6.502,0,15.674,2.857,19.244,5.994
		c1.423,1.257,2.787,3.521,3.747,6.217l0.508,1.427l-1.03,1.111c-2.672,2.882-5.073,5.992-7.137,9.243l-0.851,1.339L197.71,98.072z"
		/>
	<path fill="#423426" d="M184.803,75.439c6.005,0,14.616,2.755,17.594,5.372c1.138,1.005,2.264,2.993,3.042,5.178
		c-2.754,2.971-5.244,6.183-7.415,9.603c-4.804-0.607-10.38-2.569-12.773-4.339c-3.365-2.497-8.605-11.55-5.862-14.319
		C180.433,75.876,182.411,75.439,184.803,75.439 M184.803,70.439c-3.997,0-7.014,1.002-8.969,2.976
		c-1.136,1.146-2.438,3.226-2.181,6.609c0.408,5.367,4.886,12.474,8.617,15.243c3.188,2.358,9.546,4.579,15.126,5.285l3.148,0.398
		l1.7-2.679c1.982-3.123,4.29-6.111,6.86-8.883l2.06-2.222l-1.016-2.854c-0.645-1.812-2.079-5.162-4.442-7.249
		C201.685,73.531,191.922,70.439,184.803,70.439L184.803,70.439z"/>
</g>
<g>
	<path fill="#BAB4B1" d="M369.07,236.091c-0.846,0-1.635-0.19-2.343-0.565c-3.386-1.769-4.728-7.089-5.256-11.238
		c-0.6-4.722-0.5-11.468,1.139-15.121c1.728-3.819,8.323-8.735,12.966-8.735c1.147,0,2.164,0.278,3.021,0.827
		c4.873,3.138,4.901,14.491,4.502,18.602c-0.178,1.829-0.477,3.346-0.89,4.506c-1.434,4.015-7.966,11.726-13.138,11.726
		C369.071,236.091,369.071,236.091,369.07,236.091z"/>
	<path fill="#423426" d="M375.576,202.931c0.637,0,1.207,0.134,1.673,0.432c3.04,1.958,3.924,10.47,3.361,16.254
		c-0.151,1.561-0.407,2.928-0.757,3.909c-1.267,3.548-7.111,10.064-10.782,10.064c-0.424,0-0.818-0.086-1.174-0.274
		c-2.11-1.103-3.391-4.98-3.945-9.345c-0.658-5.177-0.291-11.039,0.939-13.783C366.246,207.194,371.981,202.931,375.576,202.931
		 M375.576,197.931c-5.723,0-13.163,5.606-15.24,10.196c-1.853,4.133-2.009,11.249-1.344,16.476
		c0.876,6.895,3.094,11.318,6.59,13.145c1.049,0.556,2.23,0.843,3.489,0.843c6.646,0,13.808-8.665,15.491-13.384
		c0.483-1.355,0.827-3.073,1.024-5.107c0.064-0.664,1.503-16.346-5.631-20.94C378.679,198.342,377.209,197.931,375.576,197.931
		L375.576,197.931z"/>
</g>
<g>
	<path fill="#BAB4B1" d="M363.273,208.223c-6.955,0-16.353-13.823-17.272-19.922c-0.527-3.495,1.438-9.398,4.207-12.633
		c1.893-2.212,3.727-2.685,4.931-2.691c6.516,0,14.403,12.38,15.599,17.437c0.907,3.851-0.156,11.481-2.837,15.184
		c-1.433,1.98-3.036,2.508-4.128,2.603C363.614,208.215,363.445,208.223,363.273,208.223z"/>
	<path fill="#423426" d="M355.156,175.477c4.598,0,12.02,10.741,13.148,15.512c0.959,4.073-0.855,14.384-4.748,14.721
		c-0.093,0.008-0.188,0.013-0.283,0.013c-5.227,0-13.985-12.394-14.801-17.795c-0.576-3.82,2.99-12.432,6.68-12.451
		C355.153,175.477,355.155,175.477,355.156,175.477 M355.156,170.477h-0.004c-1.752,0.009-4.336,0.635-6.844,3.565
		c-3.275,3.827-5.42,10.391-4.78,14.631c0.938,6.216,10.608,22.049,19.745,22.049c0.247,0,0.491-0.011,0.732-0.033
		c1.595-0.138,3.933-0.881,5.92-3.626c3.153-4.356,4.314-12.684,3.246-17.221C372.03,185.018,363.826,170.477,355.156,170.477
		L355.156,170.477z"/>
</g>
<g>
	<path fill="#BAB4B1" d="M342.15,187.456c-6.736,0-17.331-4.867-20.628-8.639c-1.199-1.378-1.968-3.332-2.402-4.729
		c-1.142-3.69-2.034-10.599,1.86-13.098c1.092-0.705,2.524-1.064,4.251-1.064c3.113,0,7.55,1.225,11.868,3.276
		c1.604,0.763,4.566,2.304,6.385,4.055c2.846,2.762,6.067,9.771,5.813,14.343c-0.137,2.437-1.194,3.745-2.058,4.413
		C346.004,186.971,344.291,187.456,342.15,187.456L342.15,187.456z"/>
	<path fill="#423426" d="M325.231,162.427c3.047,0,7.265,1.357,10.796,3.034c2.44,1.161,4.556,2.474,5.723,3.598
		c3.02,2.932,7.031,12.601,3.959,14.979c-0.828,0.641-2.071,0.918-3.559,0.918c-5.95,0-15.817-4.434-18.746-7.784
		c-0.739-0.849-1.403-2.237-1.896-3.825c-1.188-3.838-1.37-8.845,0.823-10.253C323.052,162.629,324.055,162.427,325.231,162.427
		 M325.231,157.427c-2.216,0-4.105,0.494-5.612,1.467c-4.811,3.088-4.564,10.513-2.888,15.931c0.507,1.632,1.42,3.928,2.901,5.63
		c4.117,4.71,15.478,9.501,22.518,9.501c2.708,0,4.935-0.661,6.619-1.965c1.275-0.987,2.834-2.872,3.024-6.25
		c0.3-5.376-3.216-13.024-6.561-16.27c-2.087-2.01-5.316-3.697-7.058-4.525C335.945,159.887,330.227,157.427,325.231,157.427
		L325.231,157.427z"/>
</g>
<g>
	<path fill="#BAB4B1" d="M326.606,213.434c-6.339,0-15.226-10.965-16.879-15.444c-1.367-3.698-1.243-11.395,0.96-15.406
		c1.182-2.152,2.71-2.879,3.784-3.111c0.396-0.086,0.816-0.13,1.245-0.13c6.908,0,17.266,12.153,18.822,17.725
		c0.94,3.447-0.317,9.563-2.688,13.103c-1.605,2.395-3.355,3.074-4.54,3.221c-0.229,0.029-0.464,0.043-0.704,0.043
		C326.606,213.434,326.606,213.434,326.606,213.434z"/>
	<path fill="#423426" d="M315.717,181.843c5.307,0,14.989,10.794,16.414,15.897c1.018,3.729-1.484,12.717-5.129,13.171
		c-0.129,0.018-0.261,0.025-0.395,0.025c-4.653,0-12.889-9.356-14.534-13.812c-1.459-3.949-0.895-14.384,2.926-15.207
		C315.227,181.867,315.467,181.843,315.717,181.843 M315.717,176.843c-0.606,0-1.204,0.063-1.776,0.187
		c-1.578,0.34-3.809,1.372-5.444,4.35c-2.591,4.716-2.725,13.117-1.114,17.477c1.872,5.069,11.321,17.077,19.225,17.077
		c0.342,0,0.684-0.02,1.016-0.061c1.7-0.213,4.177-1.133,6.307-4.313c2.804-4.186,4.161-10.976,3.025-15.137
		C335.148,189.957,324.187,176.843,315.717,176.843L315.717,176.843z"/>
</g>
<g>
	<path fill="#BAB4B1" d="M353.444,235.925c-6.351,0-16.982-11.874-18.879-16.494c-1.487-3.665-1.613-11.365,0.456-15.446
		c1.105-2.182,2.603-2.959,3.663-3.226c0.435-0.108,0.89-0.162,1.359-0.162c7.013,0,19.2,13.284,20.899,18.714
		c1.062,3.377,0.025,9.523-2.219,13.15c-1.526,2.468-3.259,3.211-4.443,3.399C354.01,235.903,353.732,235.925,353.444,235.925
		L353.444,235.925z"/>
	<path fill="#423426" d="M340.044,203.097c5.448,0,16.936,11.92,18.514,16.961c1.16,3.69-1.045,12.756-4.67,13.334
		c-0.143,0.023-0.29,0.033-0.443,0.033c-4.768,0-14.763-10.552-16.566-14.943c-1.576-3.885-1.363-14.345,2.418-15.298
		C339.53,203.125,339.779,203.097,340.044,203.097 M340.044,198.097c-0.673,0-1.331,0.079-1.955,0.234
		c-1.579,0.398-3.766,1.502-5.298,4.523c-2.432,4.797-2.294,13.199-0.546,17.507c2.156,5.252,13.382,18.064,21.199,18.064
		c0.414,0,0.825-0.031,1.222-0.094c1.709-0.273,4.161-1.283,6.185-4.556c2.654-4.29,3.765-11.117,2.476-15.217
		C361.315,212.131,348.45,198.097,340.044,198.097L340.044,198.097z"/>
</g>
<g>
	<path fill="#BAB4B1" d="M392.409,267.661c-6.059-0.001-15.224-9.647-17.342-14.57c-1.554-3.633-1.817-11.325,0.18-15.438
		c1.067-2.199,2.551-2.999,3.607-3.283c0.491-0.134,1.026-0.203,1.581-0.203c6.689,0,17.409,10.89,19.371,16.746
		c1.12,3.375,0.186,9.539-1.997,13.197c-1.483,2.485-3.202,3.255-4.382,3.463C393.104,267.631,392.761,267.661,392.409,267.661
		L392.409,267.661z"/>
	<path fill="#423426" d="M380.435,236.667c5.359,0,15.339,10.078,17,15.04c1.219,3.671-0.824,12.768-4.441,13.404
		c-0.188,0.033-0.382,0.05-0.585,0.05c-4.694,0-13.187-8.739-15.046-13.059c-1.647-3.853-1.621-14.307,2.141-15.318
		C379.796,236.704,380.106,236.667,380.435,236.667 M380.435,231.667c-0.777,0-1.534,0.099-2.249,0.294
		c-1.54,0.414-3.709,1.554-5.188,4.601c-2.349,4.835-2.06,13.23-0.232,17.506c2.06,4.785,11.862,16.094,19.644,16.094
		c0.498,0,0.991-0.043,1.465-0.128c1.682-0.296,4.114-1.344,6.083-4.642c2.582-4.329,3.58-11.175,2.224-15.26
		C400.141,244.043,388.794,231.667,380.435,231.667L380.435,231.667z"/>
</g>
<g>
	<path fill="#BAB4B1" d="M417.412,288.214c-6.048-0.001-15.282-9.506-17.442-14.357c-1.6-3.613-1.967-11.305-0.028-15.442
		c1.039-2.218,2.513-3.041,3.566-3.342c0.524-0.147,1.078-0.221,1.654-0.221c6.694,0,17.501,10.752,19.505,16.534
		c1.164,3.336,0.318,9.503-1.811,13.191c-1.449,2.513-3.159,3.309-4.337,3.533c-0.351,0.067-0.725,0.103-1.106,0.103
		C417.413,288.214,417.413,288.214,417.412,288.214z"/>
	<path fill="#423426" d="M405.162,257.352c5.371,0,15.43,9.91,17.143,14.853c1.271,3.646-0.648,12.763-4.254,13.45
		c-0.204,0.039-0.416,0.059-0.638,0.059c-4.713,0-13.251-8.586-15.159-12.873c-1.699-3.839-1.816-14.292,1.939-15.363
		C404.495,257.393,404.818,257.352,405.162,257.352 M405.162,252.352c-0.805,0-1.587,0.104-2.323,0.312
		c-1.57,0.448-3.724,1.621-5.161,4.69c-2.28,4.866-1.878,13.258,0.004,17.51c2.098,4.712,11.975,15.85,19.732,15.85
		c0.54,0,1.073-0.051,1.585-0.15c1.681-0.32,4.102-1.404,6.024-4.736c2.519-4.365,3.417-11.215,2.003-15.27
		C424.95,264.57,413.516,252.352,405.162,252.352L405.162,252.352z"/>
</g>
<g>
	<path fill="#BAB4B1" d="M442.501,308.581c-6.049,0-15.286-9.508-17.447-14.36c-1.601-3.616-1.966-11.308-0.023-15.443
		c1.041-2.216,2.517-3.037,3.572-3.335c0.52-0.147,1.074-0.221,1.651-0.221c6.684,0,17.491,10.742,19.502,16.52
		c1.159,3.345,0.314,9.509-1.81,13.192c-1.45,2.517-3.161,3.316-4.341,3.545C443.246,308.547,442.877,308.581,442.501,308.581z"/>
	<path fill="#423426" d="M430.254,277.722c5.37,0,15.423,9.903,17.141,14.841c1.266,3.65-0.648,12.762-4.266,13.462
		c-0.2,0.038-0.41,0.057-0.628,0.057c-4.699,0-13.254-8.589-15.163-12.877c-1.699-3.839-1.814-14.293,1.945-15.356
		C429.585,277.763,429.91,277.722,430.254,277.722 M430.254,272.722c-0.807,0-1.589,0.105-2.326,0.314
		c-1.561,0.441-3.718,1.61-5.16,4.679c-2.285,4.864-1.886,13.258-0.002,17.514c2.099,4.713,11.979,15.853,19.735,15.853
		c0.533,0,1.06-0.049,1.565-0.145c1.704-0.33,4.123-1.42,6.045-4.753c2.513-4.359,3.413-11.204,2.008-15.258
		C450.032,284.928,438.596,272.722,430.254,272.722L430.254,272.722z"/>
</g>
</svg>
